HIERARCHY
ROOT Hips
{
	OFFSET 0.000000 118.718704 0.000000
	CHANNELS 6 Xposition Yposition Zposition Xrotation Yrotation Zrotation
	JOINT Spine
	{
		OFFSET 0.000000 13.214798 0.000000
		CHANNELS 3 Xrotation Yrotation Zrotation
		JOINT Spine1
		{
			OFFSET -0.007800 9.224197 0.000000
			CHANNELS 3 Xrotation Yrotation Zrotation
			JOINT Spine2
			{
				OFFSET -0.005300 11.063004 0.000000
				CHANNELS 3 Xrotation Yrotation Zrotation
				JOINT Neck
				{
					OFFSET -0.006000 23.723495 -1.446200
					CHANNELS 3 Xrotation Yrotation Zrotation
					JOINT Head
					{
						OFFSET 0.000000 10.037094 3.529500
						CHANNELS 3 Xrotation Yrotation Zrotation
						JOINT HeadTop_End
						{
							OFFSET 0.000000 17.783005 3.803600
							CHANNELS 3 Xrotation Yrotation Zrotation
							End Site
							{
								OFFSET 0.000000 18.185226 0.000000
							}
						}
					}
				}
				JOINT LeftShoulder
				{
					OFFSET 11.304900 19.886002 -3.966000
					CHANNELS 3 Xrotation Yrotation Zrotation
					JOINT LeftArm
					{
						OFFSET 11.306598 -5.748199 -0.270300
						CHANNELS 3 Xrotation Yrotation Zrotation
						JOINT LeftForeArm
						{
							OFFSET 30.736700 0.000000 0.000000
							CHANNELS 3 Xrotation Yrotation Zrotation
							JOINT LeftHand
							{
								OFFSET 26.713104 0.000000 0.000000
								CHANNELS 3 Xrotation Yrotation Zrotation
								JOINT LeftHandThumb1
								{
									OFFSET 4.344902 -2.566803 2.604372
									CHANNELS 3 Xrotation Yrotation Zrotation
									JOINT LeftHandThumb2
									{
										OFFSET 3.503593 -2.022797 2.022803
										CHANNELS 3 Xrotation Yrotation Zrotation
										JOINT LeftHandThumb3
										{
											OFFSET 2.816719 -1.626236 1.626234
											CHANNELS 3 Xrotation Yrotation Zrotation
											JOINT LeftHandThumb4
											{
												OFFSET 3.026596 -1.747406 1.747405
												CHANNELS 3 Xrotation Yrotation Zrotation
												End Site
												{
													OFFSET 0.001099 3.907318 -0.001891
												}
											}
										}
									}
								}
								JOINT LeftHandIndex1
								{
									OFFSET 12.111603 -0.315857 3.402456
									CHANNELS 3 Xrotation Yrotation Zrotation
									JOINT LeftHandIndex2
									{
										OFFSET 4.509102 0.000000 0.000000
										CHANNELS 3 Xrotation Yrotation Zrotation
										JOINT LeftHandIndex3
										{
											OFFSET 2.907204 0.000000 0.000000
											CHANNELS 3 Xrotation Yrotation Zrotation
											JOINT LeftHandIndex4
											{
												OFFSET 2.981697 0.000000 0.000000
												CHANNELS 3 Xrotation Yrotation Zrotation
												End Site
												{
													OFFSET 0.000000 2.981705 -0.002405
												}
											}
										}
									}
								}
								JOINT LeftHandMiddle1
								{
									OFFSET 13.093796 0.000000 0.000000
									CHANNELS 3 Xrotation Yrotation Zrotation
									JOINT LeftHandMiddle2
									{
										OFFSET 3.620201 0.000000 0.000000
										CHANNELS 3 Xrotation Yrotation Zrotation
										JOINT LeftHandMiddle3
										{
											OFFSET 2.832535 0.000000 0.000000
											CHANNELS 3 Xrotation Yrotation Zrotation
											JOINT LeftHandMiddle4
											{
												OFFSET 4.715599 0.000000 0.000000
												CHANNELS 3 Xrotation Yrotation Zrotation
												End Site
												{
													OFFSET 0.000000 4.715607 -0.003807
												}
											}
										}
									}
								}
								JOINT LeftHandRing1
								{
									OFFSET 12.918800 0.015854 -3.523114
									CHANNELS 3 Xrotation Yrotation Zrotation
									JOINT LeftHandRing2
									{
										OFFSET 2.935997 0.000000 0.000000
										CHANNELS 3 Xrotation Yrotation Zrotation
										JOINT LeftHandRing3
										{
											OFFSET 3.435600 0.000000 0.000000
											CHANNELS 3 Xrotation Yrotation Zrotation
											JOINT LeftHandRing4
											{
												OFFSET 3.120598 0.000000 0.000000
												CHANNELS 3 Xrotation Yrotation Zrotation
												End Site
												{
													OFFSET 0.000000 3.120605 -0.002517
												}
											}
										}
									}
								}
								JOINT LeftHandPinky1
								{
									OFFSET 11.479301 -0.316162 -6.518347
									CHANNELS 3 Xrotation Yrotation Zrotation
									JOINT LeftHandPinky2
									{
										OFFSET 2.474701 0.000000 0.000000
										CHANNELS 3 Xrotation Yrotation Zrotation
										JOINT LeftHandPinky3
										{
											OFFSET 2.073799 0.000000 0.000000
											CHANNELS 3 Xrotation Yrotation Zrotation
											JOINT LeftHandPinky4
											{
												OFFSET 2.978897 0.000000 0.000000
												CHANNELS 3 Xrotation Yrotation Zrotation
												End Site
												{
													OFFSET 0.000000 2.978897 -0.002403
												}
											}
										}
									}
								}
							}
						}
					}
				}
				JOINT RightShoulder
				{
					OFFSET -11.278600 19.886002 -3.966000
					CHANNELS 3 Xrotation Yrotation Zrotation
					JOINT RightArm
					{
						OFFSET -11.306598 -5.748199 -0.270300
						CHANNELS 3 Xrotation Yrotation Zrotation
						JOINT RightForeArm
						{
							OFFSET -30.736702 0.000000 0.000000
							CHANNELS 3 Xrotation Yrotation Zrotation
							JOINT RightHand
							{
								OFFSET -26.713104 0.000000 0.000000
								CHANNELS 3 Xrotation Yrotation Zrotation
								JOINT RightHandThumb1
								{
									OFFSET -6.800003 -2.789825 2.712297
									CHANNELS 3 Xrotation Yrotation Zrotation
									JOINT RightHandThumb2
									{
										OFFSET -3.503593 -2.022797 2.022803
										CHANNELS 3 Xrotation Yrotation Zrotation
										JOINT RightHandThumb3
										{
											OFFSET -2.816719 -1.626236 1.626234
											CHANNELS 3 Xrotation Yrotation Zrotation
											JOINT RightHandThumb4
											{
												OFFSET -3.026566 -1.747391 1.747391
												CHANNELS 3 Xrotation Yrotation Zrotation
												End Site
												{
													OFFSET -0.004784 3.907272 -0.008546
												}
											}
										}
									}
								}
								JOINT RightHandIndex1
								{
									OFFSET -14.497482 -1.249008 3.526457
									CHANNELS 3 Xrotation Yrotation Zrotation
									JOINT RightHandIndex2
									{
										OFFSET -4.509102 0.000000 0.000000
										CHANNELS 3 Xrotation Yrotation Zrotation
										JOINT RightHandIndex3
										{
											OFFSET -2.907204 0.000000 0.000000
											CHANNELS 3 Xrotation Yrotation Zrotation
											JOINT RightHandIndex4
											{
												OFFSET -2.981697 0.000000 0.000000
												CHANNELS 3 Xrotation Yrotation Zrotation
												End Site
												{
													OFFSET 0.000000 2.981689 -0.010831
												}
											}
										}
									}
								}
								JOINT RightHandMiddle1
								{
									OFFSET -15.099701 0.000000 0.000000
									CHANNELS 3 Xrotation Yrotation Zrotation
									JOINT RightHandMiddle2
									{
										OFFSET -3.620201 0.000000 0.000000
										CHANNELS 3 Xrotation Yrotation Zrotation
										JOINT RightHandMiddle3
										{
											OFFSET -2.832535 0.000000 0.000000
											CHANNELS 3 Xrotation Yrotation Zrotation
											JOINT RightHandMiddle4
											{
												OFFSET -4.715599 0.000000 0.000000
												CHANNELS 3 Xrotation Yrotation Zrotation
												End Site
												{
													OFFSET 0.000099 4.715576 -0.017130
												}
											}
										}
									}
								}
								JOINT RightHandRing1
								{
									OFFSET -15.621628 -0.772964 -3.512012
									CHANNELS 3 Xrotation Yrotation Zrotation
									JOINT RightHandRing2
									{
										OFFSET -2.935997 0.000000 0.000000
										CHANNELS 3 Xrotation Yrotation Zrotation
										JOINT RightHandRing3
										{
											OFFSET -3.435600 0.000000 0.000000
											CHANNELS 3 Xrotation Yrotation Zrotation
											JOINT RightHandRing4
											{
												OFFSET -3.120598 0.000000 0.000000
												CHANNELS 3 Xrotation Yrotation Zrotation
												End Site
												{
													OFFSET 0.000000 3.120590 -0.011336
												}
											}
										}
									}
								}
								JOINT RightHandPinky1
								{
									OFFSET -14.089645 -1.001175 -6.433213
									CHANNELS 3 Xrotation Yrotation Zrotation
									JOINT RightHandPinky2
									{
										OFFSET -2.474701 0.000000 0.000000
										CHANNELS 3 Xrotation Yrotation Zrotation
										JOINT RightHandPinky3
										{
											OFFSET -2.073799 0.000000 0.000000
											CHANNELS 3 Xrotation Yrotation Zrotation
											JOINT RightHandPinky4
											{
												OFFSET -2.978897 0.000000 0.000000
												CHANNELS 3 Xrotation Yrotation Zrotation
												End Site
												{
													OFFSET -0.000099 2.978882 -0.010821
												}
											}
										}
									}
								}
							}
						}
					}
				}
			}
		}
	}
	JOINT LeftUpLeg
	{
		OFFSET 9.418100 -4.875099 1.897700
		CHANNELS 3 Xrotation Yrotation Zrotation
		JOINT LeftLeg
		{
			OFFSET 0.162075 -48.429626 2.366100
			CHANNELS 3 Xrotation Yrotation Zrotation
			JOINT LeftFoot
			{
				OFFSET -0.162075 -51.286976 -5.566600
				CHANNELS 3 Xrotation Yrotation Zrotation
				JOINT LeftToeBase
				{
					OFFSET 1.731600 -13.715200 15.999399
					CHANNELS 3 Xrotation Yrotation Zrotation
					JOINT LeftToe_End
					{
						OFFSET 1.266700 -0.078000 10.510900
						CHANNELS 3 Xrotation Yrotation Zrotation
						End Site
						{
							OFFSET 0.000000 10.587238 0.000000
						}
					}
				}
			}
		}
	}
	JOINT RightUpLeg
	{
		OFFSET -9.418100 -4.875099 1.897700
		CHANNELS 3 Xrotation Yrotation Zrotation
		JOINT RightLeg
		{
			OFFSET -0.162176 -48.429573 2.366200
			CHANNELS 3 Xrotation Yrotation Zrotation
			JOINT RightFoot
			{
				OFFSET 0.162176 -51.287025 -5.566700
				CHANNELS 3 Xrotation Yrotation Zrotation
				JOINT RightToeBase
				{
					OFFSET -1.731600 -13.715200 15.999400
					CHANNELS 3 Xrotation Yrotation Zrotation
					JOINT RightToe_End
					{
						OFFSET -1.266700 -0.078000 10.510900
						CHANNELS 3 Xrotation Yrotation Zrotation
						End Site
						{
							OFFSET 0.000000 10.587238 0.000000
						}
					}
				}
			}
		}
	}
}
MOTION
Frames: 6
Frame Time: 0.033333
0.622190 117.087967 -1.372772 -4.191713 -3.828581 -4.107152 3.089751 1.646593 2.959018 0.799899 0.526988 1.476487 0.773545 0.551585 1.480926 6.399116 -2.890849 1.580280 -4.904054 -13.087201 0.362150 -0.000000 -0.000001 -0.000000 1.021685 -17.263062 -12.501838 4.444171 -19.451650 -69.970555 -0.000005 -1.282629 -0.000007 -33.485832 -1.373035 -6.252857 -0.688889 2.123853 4.841591 11.812415 25.393988 17.065444 -13.817764 3.521407 9.032013 0.000000 0.000003 0.000003 0.085665 -1.006273 -7.650918 0.267720 1.752408 -17.370711 0.057603 0.820387 -8.032441 0.000000 0.000001 0.000003 -0.073873 2.676605 -15.721299 0.268669 1.755436 -17.401695 0.300401 1.853604 -18.409474 -0.000001 0.000000 0.000005 0.134139 3.635304 -21.149601 0.387664 2.097515 -20.940394 0.283965 1.803494 -17.894339 -0.000000 0.000000 0.000002 0.908507 5.548073 -27.124098 0.268530 1.755004 -17.397305 0.241666 1.666880 -16.497552 -0.000000 -0.000000 -0.000000 1.175058 15.314597 14.852723 13.208613 26.587176 57.846703 -0.000005 6.519287 -0.000001 -19.875260 0.392916 4.930648 -1.665260 -0.174476 -4.219021 12.710918 -29.825332 -16.130969 -15.549416 -3.559403 -12.707142 0.000000 -0.000001 -0.000000 0.038560 1.262300 6.823744 0.213724 -1.396028 17.407044 0.046032 -0.653854 8.053225 0.000001 0.000000 -0.000001 -0.136232 -2.205102 14.998894 0.214451 -1.398345 17.436867 0.239770 -1.476534 18.446266 0.000003 -0.000001 -0.000001 0.030607 -3.075759 20.451029 0.308449 -1.668283 20.948537 0.225822 -1.434039 17.897100 -0.000001 0.000000 -0.000004 0.748878 -4.885241 26.473789 0.214461 -1.398375 17.437248 0.193012 -1.328185 16.535816 0.000001 -0.000002 -0.000002 -10.800232 14.765969 10.661276 12.576332 0.636070 4.002735 0.948366 0.468312 -7.056037 -5.110163 -0.000002 0.000002 0.000000 -0.000001 -0.000000 1.395456 -10.530874 3.696098 7.400138 -9.847696 -3.578017 -3.806777 -2.694114 3.808855 -7.375242 -0.000015 -0.000001 -0.000001 -0.000001 0.000000 
0.658503 117.079567 -1.398549 -4.124694 -3.954928 -4.047241 3.104437 1.634699 2.959616 0.823597 0.502632 1.505929 0.797262 0.526814 1.510063 6.448231 -2.644124 1.702514 -4.796481 -11.912394 0.985301 -0.000000 0.000001 -0.000000 1.028364 -17.341369 -12.467744 4.506895 -19.435831 -69.963759 -0.000001 -1.291531 0.000015 -33.488677 -1.320237 -6.277046 -0.702903 2.099774 4.835002 11.810248 25.393533 17.065904 -13.818608 3.517959 9.031168 0.000002 -0.000000 -0.000003 0.089314 -1.016404 -7.602601 0.268076 1.753545 -17.382391 0.057766 0.821554 -8.043917 0.000001 0.000000 0.000004 -0.074613 2.671490 -15.692464 0.269218 1.757186 -17.419673 0.300985 1.855347 -18.427446 -0.000000 -0.000001 -0.000001 0.133150 3.630817 -21.105305 0.387839 2.097968 -20.945125 0.284142 1.804050 -17.900039 0.000001 -0.000001 0.000000 0.899512 5.529182 -27.119929 0.268498 1.754893 -17.396196 0.241633 1.666771 -16.496421 0.000000 0.000001 -0.000001 1.173895 15.286875 14.860702 12.463033 25.668995 58.278248 -0.000006 6.226125 -0.000009 -19.659977 0.004262 5.103430 -1.665258 -0.174476 -4.219021 12.710921 -29.825332 -16.130969 -15.549411 -3.559404 -12.707140 -0.000001 0.000001 0.000001 0.038559 1.262299 6.823743 0.213724 -1.396028 17.407044 0.046031 -0.653854 8.053222 0.000001 -0.000000 -0.000001 -0.136232 -2.205102 14.998892 0.214454 -1.398346 17.436865 0.239772 -1.476534 18.446265 0.000001 -0.000003 -0.000002 0.030609 -3.075758 20.451026 0.308447 -1.668284 20.948539 0.225822 -1.434042 17.897102 0.000000 0.000001 0.000000 0.748877 -4.885241 26.473791 0.214464 -1.398376 17.437246 0.193009 -1.328182 16.535820 -0.000001 0.000001 -0.000001 -10.853130 14.743513 10.600127 12.603248 0.783609 3.982342 0.925073 0.472709 -7.052518 -5.111324 -0.000003 -0.000000 -0.000000 -0.000001 -0.000000 1.179903 -10.545328 3.567844 7.603712 -9.731926 -3.529329 -3.870895 -2.676550 3.800849 -7.377072 0.000002 -0.000000 -0.000000 -0.000000 0.000000 
0.679914 117.073341 -1.415310 -4.061400 -4.092976 -4.002665 3.117734 1.628005 2.966949 0.846656 0.487517 1.538495 0.820310 0.511216 1.542434 6.464072 -2.174796 1.795840 -4.904271 -9.696669 1.870758 0.000000 0.000000 -0.000000 1.033656 -17.393534 -12.435275 4.547681 -19.449372 -69.950146 0.000001 -1.268824 -0.000014 -33.388683 -1.209370 -6.335099 -0.711302 2.091725 4.812875 11.806753 25.404551 17.068556 -13.819290 3.515137 9.030465 0.000001 -0.000001 -0.000001 0.089322 -1.008654 -7.583462 0.267829 1.752751 -17.374270 0.057653 0.820753 -8.035998 -0.000000 -0.000000 -0.000002 -0.075427 2.667531 -15.680349 0.269259 1.757312 -17.420981 0.301024 1.855477 -18.428757 0.000001 0.000001 0.000003 0.132596 3.628275 -21.079974 0.387083 2.095989 -20.924435 0.283484 1.802005 -17.879086 -0.000000 0.000000 0.000000 0.899592 5.528189 -27.101909 0.268805 1.755884 -17.406310 0.241928 1.667760 -16.506547 0.000000 -0.000001 -0.000000 1.173267 15.314245 14.863342 11.906497 24.860618 58.632345 0.000002 5.954785 0.000002 -19.672992 -0.261107 5.221087 -1.665255 -0.174475 -4.219021 12.710921 -29.825332 -16.130969 -15.549416 -3.559403 -12.707135 0.000002 0.000000 0.000000 0.038561 1.262299 6.823743 0.213718 -1.396028 17.407044 0.046031 -0.653854 8.053222 -0.000001 0.000000 0.000002 -0.136231 -2.205103 14.998894 0.214454 -1.398347 17.436863 0.239771 -1.476534 18.446263 0.000001 0.000001 -0.000001 0.030610 -3.075759 20.451028 0.308443 -1.668284 20.948544 0.225826 -1.434041 17.897099 0.000001 -0.000000 0.000000 0.748876 -4.885240 26.473791 0.214459 -1.398376 17.437244 0.193006 -1.328184 16.535815 0.000001 -0.000003 -0.000000 -10.899015 14.719362 10.554872 12.625261 0.942654 3.974875 0.903788 0.475992 -7.044585 -5.111577 -0.000006 -0.000001 -0.000000 0.000000 -0.000000 0.997920 -10.551080 3.468484 7.765685 -9.618957 -3.483577 -3.922892 -2.656333 3.784697 -7.378457 -0.000002 -0.000001 -0.000000 0.000001 0.000000 
0.684457 117.070656 -1.420587 -4.006028 -4.221888 -3.973477 3.128856 1.625183 2.978156 0.866585 0.480394 1.567701 0.840210 0.503681 1.571550 6.474575 -1.602417 1.868549 -5.169847 -6.994209 2.844423 -0.000000 -0.000000 -0.000000 1.033347 -17.418642 -12.420854 4.563228 -19.440836 -69.923693 0.000004 -1.241210 0.000011 -33.272276 -1.131067 -6.372118 -0.712244 2.103980 4.798925 11.808022 25.390316 17.066098 -13.819750 3.513191 9.029951 0.000001 -0.000000 0.000003 0.056225 -1.045158 -7.761655 0.268164 1.753825 -17.385246 0.057792 0.821740 -8.045766 -0.000000 0.000000 0.000001 -0.076496 2.665031 -15.695778 0.268921 1.756234 -17.409952 0.300667 1.854406 -18.417718 -0.000000 0.000001 -0.000003 0.133683 3.632303 -21.107808 0.386945 2.095635 -20.920723 0.283361 1.801619 -17.875104 -0.000000 -0.000000 0.000006 0.902984 5.533372 -27.098197 0.269038 1.756621 -17.413835 0.242147 1.668499 -16.514067 -0.000000 -0.000000 -0.000003 1.170917 15.354841 14.867555 11.621083 24.273314 58.857680 0.000000 5.745559 0.000004 -19.675610 -0.426343 5.241637 -1.665260 -0.174476 -4.219020 12.710924 -29.825336 -16.130970 -15.549416 -3.559402 -12.707130 -0.000001 0.000000 -0.000001 0.038562 1.262299 6.823742 0.213721 -1.396028 17.407046 0.046031 -0.653854 8.053222 -0.000001 0.000000 -0.000003 -0.136228 -2.205103 14.998889 0.214454 -1.398346 17.436863 0.239771 -1.476535 18.446270 -0.000001 0.000002 -0.000001 0.030609 -3.075758 20.451028 0.308449 -1.668284 20.948539 0.225824 -1.434042 17.897104 -0.000002 0.000001 -0.000001 0.748877 -4.885240 26.473789 0.214463 -1.398375 17.437253 0.193010 -1.328183 16.535820 -0.000001 0.000000 0.000001 -10.934866 14.694508 10.526538 12.640148 1.092751 3.976253 0.889201 0.478084 -7.031619 -5.110733 -0.000002 -0.000000 -0.000000 0.000000 -0.000000 0.866886 -10.553598 3.405238 7.869156 -9.519814 -3.447358 -3.958379 -2.637331 3.763196 -7.379214 -0.000002 -0.000000 0.000000 -0.000001 -0.000000 
0.671740 117.069633 -1.413084 -3.959654 -4.333492 -3.955159 3.138921 1.622499 2.985684 0.883253 0.473731 1.586617 0.856880 0.496473 1.589663 6.497862 -1.012463 1.940721 -5.551089 -4.217674 3.844925 -0.000000 -0.000000 0.000001 1.032431 -17.412447 -12.424390 4.554013 -19.376565 -69.883627 -0.000004 -1.218433 -0.000003 -33.220473 -1.142989 -6.332608 -0.710701 2.103118 4.830242 11.809914 25.379931 17.064210 -13.819959 3.512370 9.029771 0.000002 0.000000 0.000002 0.067895 -1.036815 -7.661648 0.267493 1.751681 -17.363321 0.057485 0.819561 -8.024276 -0.000000 0.000000 -0.000000 -0.080558 2.650698 -15.698456 0.268844 1.755998 -17.407512 0.300588 1.854168 -18.415278 -0.000001 0.000000 0.000002 0.133866 3.631837 -21.086145 0.387110 2.096062 -20.925208 0.283493 1.802028 -17.879332 0.000000 -0.000000 0.000004 0.905569 5.537052 -27.091160 0.268185 1.753899 -17.386043 0.241337 1.665770 -16.486260 0.000000 -0.000000 -0.000002 1.165346 15.362593 14.884915 11.612040 23.962221 58.927928 -0.000005 5.598219 0.000018 -19.518568 -0.528202 5.210484 -1.665253 -0.174476 -4.219020 12.710920 -29.825332 -16.130967 -15.549416 -3.559404 -12.707136 -0.000001 0.000001 0.000003 0.038566 1.262298 6.823744 0.213721 -1.396027 17.407048 0.046032 -0.653854 8.053222 -0.000002 0.000000 -0.000001 -0.136225 -2.205103 14.998892 0.214453 -1.398345 17.436867 0.239768 -1.476533 18.446268 0.000001 -0.000001 -0.000001 0.030612 -3.075759 20.451028 0.308446 -1.668284 20.948540 0.225827 -1.434041 17.897102 -0.000001 -0.000003 -0.000005 0.748881 -4.885241 26.473788 0.214459 -1.398375 17.437248 0.193006 -1.328185 16.535816 0.000001 -0.000002 -0.000003 -10.964441 14.675766 10.519473 12.654861 1.220461 3.979967 0.877875 0.479111 -7.024199 -5.108625 -0.000008 0.000001 0.000001 -0.000001 0.000000 0.777698 -10.555416 3.366974 7.937025 -9.439430 -3.411079 -3.990135 -2.614753 3.734419 -7.379184 0.000009 0.000001 0.000000 0.000002 0.000000 
0.643090 117.069023 -1.394942 -3.921644 -4.425342 -3.945716 3.150086 1.616519 2.988467 0.899886 0.462258 1.593052 0.873573 0.484504 1.594675 6.527980 -0.472550 2.017114 -5.951606 -1.714581 4.851838 -0.000000 -0.000000 -0.000000 1.034571 -17.373179 -12.442413 4.515166 -19.289994 -69.838848 -0.000004 -1.190230 0.000005 -33.208100 -1.213874 -6.224090 -0.708052 2.102718 4.839729 11.810877 25.389623 17.065952 -13.819815 3.512926 9.029891 0.000002 0.000000 0.000005 0.098753 -0.994435 -7.474032 0.268152 1.753797 -17.384954 0.057813 0.821888 -8.047203 -0.000001 0.000000 0.000002 -0.081296 2.644999 -15.663355 0.268840 1.755977 -17.407266 0.300581 1.854147 -18.415069 -0.000001 0.000000 0.000005 0.133225 3.628359 -21.044474 0.386611 2.094762 -20.911596 0.283059 1.800692 -17.865572 0.000000 0.000001 0.000001 0.906358 5.537569 -27.068926 0.267899 1.752989 -17.376655 0.241067 1.664856 -16.476937 0.000000 -0.000001 -0.000003 1.158316 15.340212 14.926702 11.805258 23.853831 58.885055 -0.000012 5.498920 0.000005 -19.272892 -0.591533 5.200264 -1.665256 -0.174476 -4.219020 12.710924 -29.825332 -16.130970 -15.549411 -3.559403 -12.707138 -0.000001 0.000001 0.000000 0.038561 1.262299 6.823743 0.213720 -1.396028 17.407046 0.046031 -0.653852 8.053220 0.000001 -0.000001 -0.000001 -0.136232 -2.205103 14.998894 0.214450 -1.398346 17.436863 0.239767 -1.476534 18.446268 0.000000 -0.000001 -0.000002 0.030609 -3.075758 20.451026 0.308448 -1.668283 20.948540 0.225823 -1.434040 17.897100 0.000001 -0.000000 -0.000002 0.748876 -4.885240 26.473789 0.214462 -1.398376 17.437248 0.193008 -1.328185 16.535820 -0.000000 -0.000000 0.000003 -10.989932 14.665147 10.531470 12.670402 1.323846 3.984871 0.872863 0.479329 -7.022269 -5.101882 0.000003 0.000001 -0.000000 0.000000 0.000000 0.721530 -10.556600 3.347470 7.981794 -9.379247 -3.371935 -4.022336 -2.588127 3.699335 -7.378200 -0.000011 -0.000002 0.000001 -0.000001 -0.000000 
